<?xml version="1.0" encoding="UTF-8" standalone="no"?>
<!-- Created with Inkscape (http://www.inkscape.org/) -->

<svg
   xmlns:dc="http://purl.org/dc/elements/1.1/"
   xmlns:cc="http://creativecommons.org/ns#"
   xmlns:rdf="http://www.w3.org/1999/02/22-rdf-syntax-ns#"
   xmlns:svg="http://www.w3.org/2000/svg"
   xmlns="http://www.w3.org/2000/svg"
   xmlns:sodipodi="http://sodipodi.sourceforge.net/DTD/sodipodi-0.dtd"
   xmlns:inkscape="http://www.inkscape.org/namespaces/inkscape"
   id="svg2"
   version="1.1"
   inkscape:version="0.48.3.1 r9886"
   width="64"
   height="64"
   sodipodi:docname="magichet.ico">
  <metadata
     id="metadata8">
    <rdf:RDF>
      <cc:Work
         rdf:about="">
        <dc:format>image/svg+xml</dc:format>
        <dc:type
           rdf:resource="http://purl.org/dc/dcmitype/StillImage" />
        <dc:title></dc:title>
      </cc:Work>
    </rdf:RDF>
  </metadata>
  <defs
     id="defs6" />
  <sodipodi:namedview
     pagecolor="#ffffff"
     bordercolor="#666666"
     borderopacity="1"
     objecttolerance="10"
     gridtolerance="10"
     guidetolerance="10"
     inkscape:pageopacity="0"
     inkscape:pageshadow="2"
     inkscape:window-width="1920"
     inkscape:window-height="909"
     id="namedview4"
     showgrid="false"
     inkscape:zoom="10.429825"
     inkscape:cx="38.296178"
     inkscape:cy="30.402989"
     inkscape:window-x="0"
     inkscape:window-y="27"
     inkscape:window-maximized="1"
     inkscape:current-layer="svg2" />
  <g
     id="g3706"
     transform="translate(66.169492,-2.1694915)" />
  <g
     id="g2998"
     transform="translate(147.26997,-4.9857021)" />
  <g
     id="g4595"
     transform="matrix(0.1,0,0,0.1,44.997526,42.925182)">
    <path
       style="fill:#fcfcfc"
       d="m -130.16946,210.44067 -320,0 0,-320 0,-320 320,0 320,0 0,320 0,320 -320,0 z"
       id="path4627"
       inkscape:connector-curvature="0" />
    <path
       style="fill:#d9d8d7"
       d="m -130.16946,210.44067 -320,0 0,-105 0,-105 320,0 320,0 0,105 0,105 -320,0 z m -30,-250 -20,0 0,-10 0,-10 -55,0 -55,0 0,-10 0,-10 -5,0 -5,0 0,10 0,10 -20,0 -20,0 0,-10 0,-10 -10,0 -10,0 0,-50 0,-50 15,0 15,0 0,5 0,5 5,0 5,0 0,5 0,5 5,0 5,0 0,-5 0,-5 5,0 5,0 0,-5 0,-5 15,0 15,0 0,10 0,10 25,0 25,0 0,5 0,5 5,0 5,0 0,-5 0,-5 25,0 25,0 0,-10 0,-10 20,0 20,0 0,10 0,10 25,0 25,0 0,-10 0,-10 20,0 20,0 0,10 0,10 10,0 10,0 0,5 0,5 5,0 5,0 0,-5 0,-5 25,0 25,0 0,-10 0,-10 20,0 20,0 0,10 0,10 10,0 10,0 0,10 0,10 5,0 5,0 0,15 0,15 -5,0 -5,0 0,10 0,10 5,0 5,0 0,15 0,15 -20,0 -20,0 0,-10 0,-10 -5,0 -5,0 0,10 0,10 -100,0 -100,0 0,5 0,5 -5,0 -5,0 0,5 0,5 -20,0 z m 30,-180 -320,0 0,-105 0,-105 320,0 320,0 0,105 0,105 -320,0 z"
       id="path4625"
       inkscape:connector-curvature="0" />
    <path
       style="fill:#afabaa"
       d="m -130.16946,210.44067 -320,0 0,-100 0,-100 320,0 320,0 0,100 0,100 -320,0 z m -25,-260 -15,0 0,-5 0,-5 -15,0 -15,0 0,-5 0,-5 -5,0 -5,0 0,5 0,5 -10,0 -10,0 0,-5 0,-5 -25,0 -25,0 0,-5 0,-5 -15,0 -15,0 0,5 0,5 -10,0 -10,0 0,-5 0,-5 -15,0 -15,0 0,-50 0,-50 15,0 15,0 0,5 0,5 5,0 5,0 0,5 0,5 5,0 5,0 0,-5 0,-5 5,0 5,0 0,-5 0,-5 15,0 15,0 0,10 0,10 25,0 25,0 0,5 0,5 5,0 5,0 0,-5 0,-5 25,0 25,0 0,-10 0,-10 20,0 20,0 0,10 0,10 25,0 25,0 0,-10 0,-10 20,0 20,0 0,10 0,10 10,0 10,0 0,5 0,5 5,0 5,0 0,-5 0,-5 25,0 25,0 0,-10 0,-10 20,0 20,0 0,10 0,10 5,0 5,0 0,10 0,10 5,0 5,0 0,35 0,35 -15,0 -15,0 0,-5 0,-5 -10,0 -10,0 0,5 0,5 -5,0 -5,0 0,5 0,5 -5,0 -5,0 0,-5 0,-5 -55,0 -55,0 0,5 0,5 -5,0 -5,0 0,-5 0,-5 -25,0 -25,0 0,5 0,5 -5,0 -5,0 0,5 0,5 -15,0 z m 25,-180 -320,0 0,-100 0,-100 320,0 320,0 0,100 0,100 -320,0 z"
       id="path4623"
       inkscape:connector-curvature="0" />
    <path
       style="fill:#f9e108"
       d="m -130.16946,210.44067 -320,0 0,-95 0,-95 320,0 320,0 0,95 0,95 -320,0 z m -30,-260 -10,0 0,-5 0,-5 -15,0 -15,0 0,-5 0,-5 -20,0 -20,0 0,-5 0,-5 -10,0 -10,0 0,5 0,5 -10,0 -10,0 0,-5 0,-5 -15,0 -15,0 0,5 0,5 -10,0 -10,0 0,-5 0,-5 -15,0 -15,0 0,-50 0,-50 15,0 15,0 0,5 0,5 5,0 5,0 0,5 0,5 5,0 5,0 0,-5 0,-5 5,0 5,0 0,-5 0,-5 15,0 15,0 0,10 0,10 25,0 25,0 0,5 0,5 5,0 5,0 0,-5 0,-5 25,0 25,0 0,-10 0,-10 20,0 20,0 0,10 0,10 25,0 25,0 0,-10 0,-10 20,0 20,0 0,10 0,10 10,0 10,0 0,5 0,5 5,0 5,0 0,-5 0,-5 25,0 25,0 0,-10 0,-10 20,0 20,0 0,10 0,10 5,0 5,0 0,10 0,10 5,0 5,0 0,15 0,15 -5,0 -5,0 0,10 0,10 5,0 5,0 0,5 0,5 -5,0 -5,0 0,5 0,5 -5,0 -5,0 0,-5 0,-5 -15,0 -15,0 0,-5 0,-5 -5,0 -5,0 0,10 0,10 -10,0 -10,0 0,-5 0,-5 -10,0 -10,0 0,5 0,5 -25,0 -25,0 0,-5 0,-5 -5,0 -5,0 0,5 0,5 -20,0 -20,0 0,-5 0,-5 -10,0 -10,0 0,5 0,5 -15,0 -15,0 0,5 0,5 -5,0 -5,0 0,5 0,5 -10,0 z m 30,-190 -320,0 0,-95 0,-95 320,0 320,0 0,95 0,95 -320,0 z"
       id="path4621"
       inkscape:connector-curvature="0" />
    <path
       style="fill:#919490"
       d="m -130.16946,210.44067 -320,0 0,-95 0,-95 320,0 320,0 0,95 0,95 -320,0 z m -30,-260 -10,0 0,-5 0,-5 -15,0 -15,0 0,-5 0,-5 -20,0 -20,0 0,-5 0,-5 -10,0 -10,0 0,5 0,5 -10,0 -10,0 0,-5 0,-5 -15,0 -15,0 0,5 0,5 -10,0 -10,0 0,-5 0,-5 -15,0 -15,0 0,-50 0,-50 15,0 15,0 0,5 0,5 5,0 5,0 0,5 0,5 5,0 5,0 0,-5 0,-5 5,0 5,0 0,-5 0,-5 15,0 15,0 0,10 0,10 25,0 25,0 0,5 0,5 5,0 5,0 0,-5 0,-5 25,0 25,0 0,-10 0,-10 20,0 20,0 0,10 0,10 25,0 25,0 0,-10 0,-10 20,0 20,0 0,10 0,10 10,0 10,0 0,5 0,5 5,0 5,0 0,-5 0,-5 25,0 25,0 0,-10 0,-10 20,0 20,0 0,10 0,10 5,0 5,0 0,10 0,10 5,0 5,0 0,15 0,15 -5,0 -5,0 0,10 0,10 5,0 5,0 0,5 0,5 -5,0 -5,0 0,5 0,5 -5,0 -5,0 0,-5 0,-5 -15,0 -15,0 0,-5 0,-5 -5,0 -5,0 0,10 0,10 -10,0 -10,0 0,-5 0,-5 -10,0 -10,0 0,5 0,5 -25,0 -25,0 0,-5 0,-5 -5,0 -5,0 0,5 0,5 -20,0 -20,0 0,-5 0,-5 -10,0 -10,0 0,5 0,5 -15,0 -15,0 0,5 0,5 -5,0 -5,0 0,5 0,5 -10,0 z m -20,-20 10,0 0,-5 0,-5 5,0 5,0 0,-35 0,-35 -20,0 -20,0 0,5 0,5 -5,0 -5,0 0,20 0,20 5,0 5,0 0,5 0,5 10,0 10,0 0,5 0,5 -5,0 -5,0 0,5 0,5 10,0 z m -5,-30 -5,0 0,-20 0,-20 5,0 5,0 0,20 0,20 -5,0 z m -155,10 10,0 0,-20 0,-20 5,0 5,0 0,5 0,5 5,0 5,0 0,-5 0,-5 5,0 5,0 0,20 0,20 10,0 10,0 0,-40 0,-40 -5,0 -5,0 0,5 0,5 -5,0 -5,0 0,5 0,5 -5,0 -5,0 0,5 0,5 -5,0 -5,0 0,-5 0,-5 -5,0 -5,0 0,-5 0,-5 -5,0 -5,0 0,-5 0,-5 -5,0 -5,0 0,40 0,40 10,0 z m 100,0 20,0 0,-25 0,-25 -5,0 -5,0 0,-5 0,-5 -15,0 -15,0 0,5 0,5 -5,0 -5,0 0,20 0,20 5,0 5,0 0,5 0,5 20,0 z m -5,-10 -5,0 0,-20 0,-20 5,0 5,0 0,20 0,20 -5,0 z m 105,10 10,0 0,-30 0,-30 -10,0 -10,0 0,30 0,30 10,0 z m 45,0 15,0 0,-5 0,-5 5,0 5,0 0,-5 0,-5 -10,0 -10,0 0,5 0,5 -5,0 -5,0 0,-20 0,-20 5,0 5,0 0,5 0,5 10,0 10,0 0,-5 0,-5 -5,0 -5,0 0,-5 0,-5 -15,0 -15,0 0,5 0,5 -5,0 -5,0 0,20 0,20 5,0 5,0 0,5 0,5 15,0 z m 45,0 10,0 0,-25 0,-25 5,0 5,0 0,25 0,25 10,0 10,0 0,-25 0,-25 -5,0 -5,0 0,-5 0,-5 -10,0 -10,0 0,-10 0,-10 -10,0 -10,0 0,40 0,40 10,0 z m 75,0 15,0 0,-5 0,-5 -10,0 -10,0 0,-10 0,-10 15,0 15,0 0,-10 0,-10 -5,0 -5,0 0,-5 0,-5 -15,0 -15,0 0,5 0,5 -5,0 -5,0 0,20 0,20 5,0 5,0 0,5 0,5 15,0 z m 0,-40 -5,0 0,-5 0,-5 5,0 5,0 0,5 0,5 -5,0 z m 55,40 10,0 0,-5 0,-5 -5,0 -5,0 0,-20 0,-20 5,0 5,0 0,-5 0,-5 -5,0 -5,0 0,-10 0,-10 -10,0 -10,0 0,35 0,35 5,0 5,0 0,5 0,5 10,0 z m -220,-70 10,0 0,-5 0,-5 -10,0 -10,0 0,5 0,5 10,0 z m 10,-80 -320,0 0,-95 0,-95 320,0 320,0 0,95 0,95 -320,0 z"
       id="path4619"
       inkscape:connector-curvature="0" />
    <path
       style="fill:#736f6c"
       d="m -130.16946,210.44067 -320,0 0,-10 0,-10 5,0 5,0 0,-25 0,-25 65,0 65,0 0,-5 0,-5 -70,0 -70,0 0,-35 0,-35 30,0 30,0 0,-5 0,-5 -30,0 -30,0 0,-15 0,-15 320,0 320,0 0,15 0,15 -40,0 -40,0 0,30 0,30 5,0 5,0 0,-25 0,-25 35,0 35,0 0,75 0,75 -320,0 z m -155,-20 5,0 0,-25 0,-25 65,0 65,0 0,-5 0,-5 -70,0 -70,0 0,30 0,30 5,0 z m 160,0 5,0 0,-25 0,-25 65,0 65,0 0,-5 0,-5 -70,0 -70,0 0,30 0,30 5,0 z m 160,0 5,0 0,-25 0,-25 65,0 65,0 0,-5 0,-5 -70,0 -70,0 0,30 0,30 5,0 z m -400,-80 5,0 0,-25 0,-25 65,0 65,0 0,-5 0,-5 -70,0 -70,0 0,30 0,30 5,0 z m 160,0 5,0 0,-25 0,-25 65,0 65,0 0,-5 0,-5 -70,0 -70,0 0,30 0,30 5,0 z m 160,0 5,0 0,-25 0,-25 65,0 65,0 0,-5 0,-5 -70,0 -70,0 0,30 0,30 5,0 z m -110,-160 -5,0 0,-5 0,-5 -20,0 -20,0 0,-10 0,-10 -5,0 -5,0 0,5 0,5 -10,0 -10,0 0,-5 0,-5 -65,0 -65,0 0,-50 0,-50 15,0 15,0 0,5 0,5 5,0 5,0 0,5 0,5 5,0 5,0 0,-5 0,-5 5,0 5,0 0,-5 0,-5 15,0 15,0 0,10 0,10 25,0 25,0 0,5 0,5 5,0 5,0 0,-5 0,-5 25,0 25,0 0,-10 0,-10 20,0 20,0 0,10 0,10 25,0 25,0 0,-10 0,-10 20,0 20,0 0,10 0,10 10,0 10,0 0,5 0,5 5,0 5,0 0,-5 0,-5 25,0 25,0 0,-10 0,-10 20,0 20,0 0,10 0,10 5,0 5,0 0,40 0,40 -20,0 -20,0 0,-5 0,-5 -5,0 -5,0 0,5 0,5 -55,0 -55,0 0,5 0,5 -10,0 -10,0 0,-5 0,-5 -25,0 -25,0 0,5 0,5 -5,0 -5,0 0,5 0,5 -5,0 -5,0 0,5 0,5 -5,0 z m -25,-20 10,0 0,-5 0,-5 5,0 5,0 0,-35 0,-35 -20,0 -20,0 0,5 0,5 -5,0 -5,0 0,20 0,20 5,0 5,0 0,5 0,5 10,0 10,0 0,5 0,5 -5,0 -5,0 0,5 0,5 10,0 z m -5,-30 -5,0 0,-20 0,-20 5,0 5,0 0,20 0,20 -5,0 z m -155,10 10,0 0,-20 0,-20 5,0 5,0 0,5 0,5 5,0 5,0 0,-5 0,-5 5,0 5,0 0,20 0,20 10,0 10,0 0,-40 0,-40 -5,0 -5,0 0,5 0,5 -5,0 -5,0 0,5 0,5 -5,0 -5,0 0,5 0,5 -5,0 -5,0 0,-5 0,-5 -5,0 -5,0 0,-5 0,-5 -5,0 -5,0 0,-5 0,-5 -5,0 -5,0 0,40 0,40 10,0 z m 100,0 20,0 0,-25 0,-25 -5,0 -5,0 0,-5 0,-5 -15,0 -15,0 0,5 0,5 -5,0 -5,0 0,20 0,20 5,0 5,0 0,5 0,5 20,0 z m -5,-10 -5,0 0,-20 0,-20 5,0 5,0 0,20 0,20 -5,0 z m 105,10 10,0 0,-30 0,-30 -10,0 -10,0 0,30 0,30 10,0 z m 45,0 15,0 0,-5 0,-5 5,0 5,0 0,-5 0,-5 -10,0 -10,0 0,5 0,5 -5,0 -5,0 0,-20 0,-20 5,0 5,0 0,5 0,5 10,0 10,0 0,-5 0,-5 -5,0 -5,0 0,-5 0,-5 -15,0 -15,0 0,5 0,5 -5,0 -5,0 0,20 0,20 5,0 5,0 0,5 0,5 15,0 z m 45,0 10,0 0,-25 0,-25 5,0 5,0 0,25 0,25 10,0 10,0 0,-25 0,-25 -5,0 -5,0 0,-5 0,-5 -10,0 -10,0 0,-10 0,-10 -10,0 -10,0 0,40 0,40 10,0 z m 75,0 15,0 0,-5 0,-5 -10,0 -10,0 0,-10 0,-10 15,0 15,0 0,-10 0,-10 -5,0 -5,0 0,-5 0,-5 -15,0 -15,0 0,5 0,5 -5,0 -5,0 0,20 0,20 5,0 5,0 0,5 0,5 15,0 z m 0,-40 -5,0 0,-5 0,-5 5,0 5,0 0,5 0,5 -5,0 z m 55,40 10,0 0,-5 0,-5 -5,0 -5,0 0,-20 0,-20 5,0 5,0 0,-5 0,-5 -5,0 -5,0 0,-10 0,-10 -10,0 -10,0 0,35 0,35 5,0 5,0 0,5 0,5 10,0 z m -220,-70 10,0 0,-5 0,-5 -10,0 -10,0 0,5 0,5 10,0 z m 10,-80 -320,0 0,-25 0,-25 5,0 5,0 0,-25 0,-25 65,0 65,0 0,-5 0,-5 -70,0 -70,0 0,-35 0,-35 30,0 30,0 0,-5 0,-5 10,0 10,0 0,30 0,30 5,0 5,0 0,-25 0,-25 65,0 65,0 0,-5 0,-5 10,0 10,0 0,30 0,30 5,0 5,0 0,-25 0,-25 65,0 65,0 0,-5 0,-5 10,0 10,0 0,30 0,30 5,0 5,0 0,-25 0,-25 65,0 65,0 0,-5 0,-5 10,0 10,0 0,30 0,30 5,0 5,0 0,-25 0,-25 35,0 35,0 0,90 0,90 -320,0 z m -155,-50 5,0 0,-25 0,-25 65,0 65,0 0,-5 0,-5 -70,0 -70,0 0,30 0,30 5,0 z m 160,0 5,0 0,-25 0,-25 65,0 65,0 0,-5 0,-5 -70,0 -70,0 0,30 0,30 5,0 z m 160,0 5,0 0,-25 0,-25 65,0 65,0 0,-5 0,-5 -70,0 -70,0 0,30 0,30 5,0 z"
       id="path4617"
       inkscape:connector-curvature="0" />
    <path
       style="fill:#525351"
       d="m -365.16946,210.44067 -75,0 0,-35 0,-35 75,0 75,0 0,35 0,35 -75,0 z m 160,0 -75,0 0,-35 0,-35 70,0 70,0 0,5 0,5 5,0 5,0 0,30 0,30 -75,0 z m 160,0 -75,0 0,-35 0,-35 75,0 75,0 0,35 0,35 -75,0 z m 160,0 -75,0 0,-35 0,-35 70,0 70,0 0,5 0,5 5,0 5,0 0,30 0,30 -75,0 z m -525,-80 -40,0 0,-35 0,-35 40,0 40,0 0,35 0,35 -40,0 z m 125,0 -75,0 0,-35 0,-35 75,0 75,0 0,35 0,35 -75,0 z m 160,0 -75,0 0,-35 0,-35 75,0 75,0 0,35 0,35 -75,0 z m 160,0 -75,0 0,-35 0,-35 75,0 75,0 0,35 0,35 -75,0 z m 120,0 -35,0 0,-35 0,-35 35,0 35,0 0,35 0,35 -35,0 z m -285,-80 -320,0 0,-10 0,-10 320,0 320,0 0,10 0,10 -320,0 z m -45,-110 -25,0 0,-10 0,-10 -55,0 -55,0 0,-10 0,-10 -5,0 -5,0 0,10 0,10 -20,0 -20,0 0,-50 0,-50 15,0 15,0 0,5 0,5 5,0 5,0 0,5 0,5 5,0 5,0 0,-5 0,-5 5,0 5,0 0,-5 0,-5 15,0 15,0 0,10 0,10 25,0 25,0 0,5 0,5 5,0 5,0 0,-5 0,-5 25,0 25,0 0,-10 0,-10 20,0 20,0 0,10 0,10 25,0 25,0 0,-10 0,-10 20,0 20,0 0,10 0,10 10,0 10,0 0,5 0,5 5,0 5,0 0,-5 0,-5 25,0 25,0 0,-10 0,-10 20,0 20,0 0,10 0,10 5,0 5,0 0,40 0,40 -20,0 -20,0 0,-5 0,-5 -5,0 -5,0 0,5 0,5 -95,0 -95,0 0,5 0,5 -5,0 -5,0 0,5 0,5 -25,0 z m -5,-10 10,0 0,-5 0,-5 5,0 5,0 0,-35 0,-35 -20,0 -20,0 0,5 0,5 -5,0 -5,0 0,20 0,20 5,0 5,0 0,5 0,5 10,0 10,0 0,5 0,5 -5,0 -5,0 0,5 0,5 10,0 z m -5,-30 -5,0 0,-20 0,-20 5,0 5,0 0,20 0,20 -5,0 z m -155,10 10,0 0,-20 0,-20 5,0 5,0 0,5 0,5 5,0 5,0 0,-5 0,-5 5,0 5,0 0,20 0,20 10,0 10,0 0,-40 0,-40 -5,0 -5,0 0,5 0,5 -5,0 -5,0 0,5 0,5 -5,0 -5,0 0,5 0,5 -5,0 -5,0 0,-5 0,-5 -5,0 -5,0 0,-5 0,-5 -5,0 -5,0 0,-5 0,-5 -5,0 -5,0 0,40 0,40 10,0 z m 100,0 20,0 0,-25 0,-25 -5,0 -5,0 0,-5 0,-5 -15,0 -15,0 0,5 0,5 -5,0 -5,0 0,20 0,20 5,0 5,0 0,5 0,5 20,0 z m -5,-10 -5,0 0,-20 0,-20 5,0 5,0 0,20 0,20 -5,0 z m 105,10 10,0 0,-30 0,-30 -10,0 -10,0 0,30 0,30 10,0 z m 45,0 15,0 0,-5 0,-5 5,0 5,0 0,-5 0,-5 -10,0 -10,0 0,5 0,5 -5,0 -5,0 0,-20 0,-20 5,0 5,0 0,5 0,5 10,0 10,0 0,-5 0,-5 -5,0 -5,0 0,-5 0,-5 -15,0 -15,0 0,5 0,5 -5,0 -5,0 0,20 0,20 5,0 5,0 0,5 0,5 15,0 z m 45,0 10,0 0,-25 0,-25 5,0 5,0 0,25 0,25 10,0 10,0 0,-25 0,-25 -5,0 -5,0 0,-5 0,-5 -10,0 -10,0 0,-10 0,-10 -10,0 -10,0 0,40 0,40 10,0 z m 75,0 15,0 0,-5 0,-5 -10,0 -10,0 0,-10 0,-10 15,0 15,0 0,-10 0,-10 -5,0 -5,0 0,-5 0,-5 -15,0 -15,0 0,5 0,5 -5,0 -5,0 0,20 0,20 5,0 5,0 0,5 0,5 15,0 z m 0,-40 -5,0 0,-5 0,-5 5,0 5,0 0,5 0,5 -5,0 z m 55,40 10,0 0,-5 0,-5 -5,0 -5,0 0,-20 0,-20 5,0 5,0 0,-5 0,-5 -5,0 -5,0 0,-10 0,-10 -10,0 -10,0 0,35 0,35 5,0 5,0 0,5 0,5 10,0 z m -220,-70 10,0 0,-5 0,-5 -10,0 -10,0 0,5 0,5 10,0 z m 10,-90 -320,0 0,-10 0,-10 5,0 5,0 0,-35 0,-35 75,0 75,0 0,35 0,35 5,0 5,0 0,-35 0,-35 70,0 70,0 0,5 0,5 5,0 5,0 0,30 0,30 5,0 5,0 0,-35 0,-35 75,0 75,0 0,35 0,35 5,0 5,0 0,-35 0,-35 70,0 70,0 0,5 0,5 5,0 5,0 0,40 0,40 -320,0 z m -280,-100 -40,0 0,-35 0,-35 40,0 40,0 0,35 0,35 -40,0 z m 125,0 -75,0 0,-35 0,-35 75,0 75,0 0,35 0,35 -75,0 z m 160,0 -75,0 0,-35 0,-35 75,0 75,0 0,35 0,35 -75,0 z m 160,0 -75,0 0,-35 0,-35 75,0 75,0 0,35 0,35 -75,0 z m 120,0 -35,0 0,-35 0,-35 35,0 35,0 0,35 0,35 -35,0 z"
       id="path4615"
       inkscape:connector-curvature="0" />
    <path
       style="fill:#8f2d2d"
       d="m -370.16946,200.44067 -70,0 0,-30 0,-30 70,0 70,0 0,30 0,30 -70,0 z m 160,0 -70,0 0,-30 0,-30 70,0 70,0 0,30 0,30 -70,0 z m 160,0 -70,0 0,-30 0,-30 70,0 70,0 0,30 0,30 -70,0 z m 160,0 -70,0 0,-30 0,-30 70,0 70,0 0,30 0,30 -70,0 z m -525,-80 -35,0 0,-30 0,-30 35,0 35,0 0,30 0,30 -35,0 z m 125,0 -70,0 0,-30 0,-30 70,0 70,0 0,30 0,30 -70,0 z m 160,0 -70,0 0,-30 0,-30 70,0 70,0 0,30 0,30 -70,0 z m 160,0 -70,0 0,-30 0,-30 70,0 70,0 0,30 0,30 -70,0 z m 125,0 -35,0 0,-30 0,-30 35,0 35,0 0,30 0,30 -35,0 z m -285,-70 -320,0 0,-10 0,-10 320,0 320,0 0,10 0,10 -320,0 z m -45,-110 -25,0 0,-10 0,-10 -55,0 -55,0 0,-15 0,-15 -5,0 -5,0 0,15 0,15 -20,0 -20,0 0,-50 0,-50 15,0 15,0 0,5 0,5 5,0 5,0 0,5 0,5 5,0 5,0 0,-5 0,-5 5,0 5,0 0,-5 0,-5 15,0 15,0 0,10 0,10 25,0 25,0 0,5 0,5 5,0 5,0 0,-5 0,-5 25,0 25,0 0,-10 0,-10 20,0 20,0 0,10 0,10 25,0 25,0 0,-10 0,-10 20,0 20,0 0,10 0,10 10,0 10,0 0,5 0,5 5,0 5,0 0,-5 0,-5 25,0 25,0 0,-10 0,-10 20,0 20,0 0,10 0,10 5,0 5,0 0,15 0,15 -5,0 -5,0 0,10 0,10 5,0 5,0 0,15 0,15 -20,0 -20,0 0,-5 0,-5 -5,0 -5,0 0,5 0,5 -100,0 -100,0 0,10 0,10 -25,0 z m -5,-10 10,0 0,-5 0,-5 5,0 5,0 0,-35 0,-35 -20,0 -20,0 0,5 0,5 -5,0 -5,0 0,20 0,20 5,0 5,0 0,5 0,5 10,0 10,0 0,5 0,5 -5,0 -5,0 0,5 0,5 10,0 z m -5,-30 -5,0 0,-20 0,-20 5,0 5,0 0,20 0,20 -5,0 z m -155,10 10,0 0,-20 0,-20 5,0 5,0 0,5 0,5 5,0 5,0 0,-5 0,-5 5,0 5,0 0,20 0,20 10,0 10,0 0,-40 0,-40 -5,0 -5,0 0,5 0,5 -5,0 -5,0 0,5 0,5 -5,0 -5,0 0,5 0,5 -5,0 -5,0 0,-5 0,-5 -5,0 -5,0 0,-5 0,-5 -5,0 -5,0 0,-5 0,-5 -5,0 -5,0 0,40 0,40 10,0 z m 100,0 20,0 0,-25 0,-25 -5,0 -5,0 0,-5 0,-5 -15,0 -15,0 0,5 0,5 -5,0 -5,0 0,20 0,20 5,0 5,0 0,5 0,5 20,0 z m -5,-10 -5,0 0,-20 0,-20 5,0 5,0 0,20 0,20 -5,0 z m 105,10 10,0 0,-30 0,-30 -10,0 -10,0 0,30 0,30 10,0 z m 45,0 15,0 0,-5 0,-5 5,0 5,0 0,-5 0,-5 -10,0 -10,0 0,5 0,5 -5,0 -5,0 0,-20 0,-20 5,0 5,0 0,5 0,5 10,0 10,0 0,-5 0,-5 -5,0 -5,0 0,-5 0,-5 -15,0 -15,0 0,5 0,5 -5,0 -5,0 0,20 0,20 5,0 5,0 0,5 0,5 15,0 z m 45,0 10,0 0,-25 0,-25 5,0 5,0 0,25 0,25 10,0 10,0 0,-25 0,-25 -5,0 -5,0 0,-5 0,-5 -10,0 -10,0 0,-10 0,-10 -10,0 -10,0 0,40 0,40 10,0 z m 75,0 15,0 0,-5 0,-5 -10,0 -10,0 0,-10 0,-10 15,0 15,0 0,-10 0,-10 -5,0 -5,0 0,-5 0,-5 -15,0 -15,0 0,5 0,5 -5,0 -5,0 0,20 0,20 5,0 5,0 0,5 0,5 15,0 z m 0,-40 -5,0 0,-5 0,-5 5,0 5,0 0,5 0,5 -5,0 z m 55,40 10,0 0,-5 0,-5 -5,0 -5,0 0,-20 0,-20 5,0 5,0 0,-5 0,-5 -5,0 -5,0 0,-10 0,-10 -10,0 -10,0 0,35 0,35 5,0 5,0 0,5 0,5 10,0 z m -220,-70 10,0 0,-5 0,-5 -10,0 -10,0 0,5 0,5 10,0 z m 10,-90 -320,0 0,-10 0,-10 320,0 320,0 0,10 0,10 -320,0 z m -240,-30 -70,0 0,-30 0,-30 70,0 70,0 0,30 0,30 -70,0 z m 160,0 -70,0 0,-30 0,-30 70,0 70,0 0,30 0,30 -70,0 z m 160,0 -70,0 0,-30 0,-30 70,0 70,0 0,30 0,30 -70,0 z m 160,0 -70,0 0,-30 0,-30 70,0 70,0 0,30 0,30 -70,0 z m -525,-80 -35,0 0,-30 0,-30 35,0 35,0 0,30 0,30 -35,0 z m 125,0 -70,0 0,-30 0,-30 70,0 70,0 0,30 0,30 -70,0 z m 160,0 -70,0 0,-30 0,-30 70,0 70,0 0,30 0,30 -70,0 z m 160,0 -70,0 0,-30 0,-30 70,0 70,0 0,30 0,30 -70,0 z m 125,0 -35,0 0,-30 0,-30 35,0 35,0 0,30 0,30 -35,0 z"
       id="path4613"
       inkscape:connector-curvature="0" />
    <path
       style="fill:#49403b"
       d="m -370.16946,200.44067 -70,0 0,-5 0,-5 5,0 5,0 0,-20 0,-20 60,0 60,0 0,-5 0,-5 5,0 5,0 0,30 0,30 -70,0 z m 160,0 -70,0 0,-5 0,-5 5,0 5,0 0,-20 0,-20 60,0 60,0 0,-5 0,-5 5,0 5,0 0,30 0,30 -70,0 z m 160,0 -70,0 0,-5 0,-5 5,0 5,0 0,-20 0,-20 60,0 60,0 0,-5 0,-5 5,0 5,0 0,30 0,30 -70,0 z m 160,0 -70,0 0,-5 0,-5 5,0 5,0 0,-20 0,-20 60,0 60,0 0,-5 0,-5 5,0 5,0 0,30 0,30 -70,0 z m -525,-80 -35,0 0,-25 0,-25 20,0 20,0 0,-5 0,-5 15,0 15,0 0,30 0,30 -35,0 z m 125,0 -70,0 0,-5 0,-5 5,0 5,0 0,-20 0,-20 30,0 30,0 0,-5 0,-5 15,0 15,0 0,5 0,5 5,0 5,0 0,-5 0,-5 15,0 15,0 0,30 0,30 -70,0 z m 160,0 -70,0 0,-5 0,-5 5,0 5,0 0,-20 0,-20 10,0 10,0 0,-5 0,-5 20,0 20,0 0,5 0,5 20,0 20,0 0,-5 0,-5 15,0 15,0 0,30 0,30 -70,0 z m 160,0 -70,0 0,-5 0,-5 5,0 5,0 0,-20 0,-20 30,0 30,0 0,-5 0,-5 15,0 15,0 0,5 0,5 5,0 5,0 0,-5 0,-5 15,0 15,0 0,30 0,30 -70,0 z m 125,0 -35,0 0,-5 0,-5 5,0 5,0 0,-20 0,-20 10,0 10,0 0,-5 0,-5 20,0 20,0 0,30 0,30 -35,0 z m -285,-70 -320,0 0,-10 0,-10 320,0 320,0 0,10 0,10 -320,0 z m -45,-110 -25,0 0,-10 0,-10 -55,0 -55,0 0,-15 0,-15 -5,0 -5,0 0,15 0,15 -20,0 -20,0 0,-50 0,-50 15,0 15,0 0,5 0,5 5,0 5,0 0,5 0,5 5,0 5,0 0,-5 0,-5 5,0 5,0 0,-5 0,-5 15,0 15,0 0,10 0,10 25,0 25,0 0,5 0,5 5,0 5,0 0,-5 0,-5 25,0 25,0 0,-10 0,-10 20,0 20,0 0,10 0,10 25,0 25,0 0,-10 0,-10 20,0 20,0 0,10 0,10 10,0 10,0 0,5 0,5 5,0 5,0 0,-5 0,-5 25,0 25,0 0,-10 0,-10 20,0 20,0 0,10 0,10 5,0 5,0 0,15 0,15 -5,0 -5,0 0,10 0,10 5,0 5,0 0,15 0,15 -20,0 -20,0 0,-5 0,-5 -5,0 -5,0 0,5 0,5 -100,0 -100,0 0,10 0,10 -25,0 z m -5,-10 10,0 0,-5 0,-5 5,0 5,0 0,-35 0,-35 -20,0 -20,0 0,5 0,5 -5,0 -5,0 0,20 0,20 5,0 5,0 0,5 0,5 10,0 10,0 0,5 0,5 -5,0 -5,0 0,5 0,5 10,0 z m -5,-30 -5,0 0,-20 0,-20 5,0 5,0 0,20 0,20 -5,0 z m -155,10 10,0 0,-20 0,-20 5,0 5,0 0,5 0,5 5,0 5,0 0,-5 0,-5 5,0 5,0 0,20 0,20 10,0 10,0 0,-40 0,-40 -5,0 -5,0 0,5 0,5 -5,0 -5,0 0,5 0,5 -5,0 -5,0 0,5 0,5 -5,0 -5,0 0,-5 0,-5 -5,0 -5,0 0,-5 0,-5 -5,0 -5,0 0,-5 0,-5 -5,0 -5,0 0,40 0,40 10,0 z m 100,0 20,0 0,-25 0,-25 -5,0 -5,0 0,-5 0,-5 -15,0 -15,0 0,5 0,5 -5,0 -5,0 0,20 0,20 5,0 5,0 0,5 0,5 20,0 z m -5,-10 -5,0 0,-20 0,-20 5,0 5,0 0,20 0,20 -5,0 z m 105,10 10,0 0,-30 0,-30 -10,0 -10,0 0,30 0,30 10,0 z m 45,0 15,0 0,-5 0,-5 5,0 5,0 0,-5 0,-5 -10,0 -10,0 0,5 0,5 -5,0 -5,0 0,-20 0,-20 5,0 5,0 0,5 0,5 10,0 10,0 0,-5 0,-5 -5,0 -5,0 0,-5 0,-5 -15,0 -15,0 0,5 0,5 -5,0 -5,0 0,20 0,20 5,0 5,0 0,5 0,5 15,0 z m 45,0 10,0 0,-25 0,-25 5,0 5,0 0,25 0,25 10,0 10,0 0,-25 0,-25 -5,0 -5,0 0,-5 0,-5 -10,0 -10,0 0,-10 0,-10 -10,0 -10,0 0,40 0,40 10,0 z m 75,0 15,0 0,-5 0,-5 -10,0 -10,0 0,-10 0,-10 15,0 15,0 0,-10 0,-10 -5,0 -5,0 0,-5 0,-5 -15,0 -15,0 0,5 0,5 -5,0 -5,0 0,20 0,20 5,0 5,0 0,5 0,5 15,0 z m 0,-40 -5,0 0,-5 0,-5 5,0 5,0 0,5 0,5 -5,0 z m 55,40 10,0 0,-5 0,-5 -5,0 -5,0 0,-20 0,-20 5,0 5,0 0,-5 0,-5 -5,0 -5,0 0,-10 0,-10 -10,0 -10,0 0,35 0,35 5,0 5,0 0,5 0,5 10,0 z m -220,-70 10,0 0,-5 0,-5 -10,0 -10,0 0,5 0,5 10,0 z m 10,-90 -320,0 0,-10 0,-10 320,0 320,0 0,10 0,10 -320,0 z m -240,-30 -70,0 0,-5 0,-5 5,0 5,0 0,-20 0,-20 60,0 60,0 0,-5 0,-5 5,0 5,0 0,30 0,30 -70,0 z m 160,0 -70,0 0,-5 0,-5 5,0 5,0 0,-20 0,-20 60,0 60,0 0,-5 0,-5 5,0 5,0 0,30 0,30 -70,0 z m 160,0 -70,0 0,-5 0,-5 5,0 5,0 0,-20 0,-20 60,0 60,0 0,-5 0,-5 5,0 5,0 0,30 0,30 -70,0 z m 160,0 -70,0 0,-5 0,-5 5,0 5,0 0,-20 0,-20 60,0 60,0 0,-5 0,-5 5,0 5,0 0,30 0,30 -70,0 z m -525,-80 -35,0 0,-25 0,-25 20,0 20,0 0,-5 0,-5 15,0 15,0 0,30 0,30 -35,0 z m 125,0 -70,0 0,-5 0,-5 5,0 5,0 0,-20 0,-20 30,0 30,0 0,-5 0,-5 15,0 15,0 0,5 0,5 5,0 5,0 0,-5 0,-5 15,0 15,0 0,30 0,30 -70,0 z m 160,0 -70,0 0,-5 0,-5 5,0 5,0 0,-20 0,-20 10,0 10,0 0,-5 0,-5 20,0 20,0 0,5 0,5 20,0 20,0 0,-5 0,-5 15,0 15,0 0,30 0,30 -70,0 z m 160,0 -70,0 0,-5 0,-5 5,0 5,0 0,-20 0,-20 30,0 30,0 0,-5 0,-5 15,0 15,0 0,5 0,5 5,0 5,0 0,-5 0,-5 15,0 15,0 0,30 0,30 -70,0 z m 125,0 -35,0 0,-5 0,-5 5,0 5,0 0,-20 0,-20 10,0 10,0 0,-5 0,-5 20,0 20,0 0,30 0,30 -35,0 z"
       id="path4611"
       inkscape:connector-curvature="0" />
    <path
       style="fill:#722424"
       d="m -370.16946,200.44067 -70,0 0,-5 0,-5 5,0 5,0 0,-20 0,-20 60,0 60,0 0,-5 0,-5 5,0 5,0 0,30 0,30 -70,0 z m 160,0 -70,0 0,-5 0,-5 5,0 5,0 0,-20 0,-20 60,0 60,0 0,-5 0,-5 5,0 5,0 0,30 0,30 -70,0 z m 160,0 -70,0 0,-5 0,-5 5,0 5,0 0,-20 0,-20 60,0 60,0 0,-5 0,-5 5,0 5,0 0,30 0,30 -70,0 z m 160,0 -70,0 0,-5 0,-5 5,0 5,0 0,-20 0,-20 60,0 60,0 0,-5 0,-5 5,0 5,0 0,30 0,30 -70,0 z m -525,-80 -35,0 0,-25 0,-25 20,0 20,0 0,-5 0,-5 15,0 15,0 0,30 0,30 -35,0 z m 125,0 -70,0 0,-5 0,-5 5,0 5,0 0,-20 0,-20 30,0 30,0 0,-5 0,-5 15,0 15,0 0,5 0,5 5,0 5,0 0,-5 0,-5 15,0 15,0 0,30 0,30 -70,0 z m 160,0 -70,0 0,-5 0,-5 5,0 5,0 0,-20 0,-20 10,0 10,0 0,-5 0,-5 20,0 20,0 0,5 0,5 20,0 20,0 0,-5 0,-5 15,0 15,0 0,30 0,30 -70,0 z m 160,0 -70,0 0,-5 0,-5 5,0 5,0 0,-20 0,-20 30,0 30,0 0,-5 0,-5 15,0 15,0 0,5 0,5 5,0 5,0 0,-5 0,-5 15,0 15,0 0,30 0,30 -70,0 z m 125,0 -35,0 0,-5 0,-5 5,0 5,0 0,-20 0,-20 10,0 10,0 0,-5 0,-5 20,0 20,0 0,30 0,30 -35,0 z m -285,-70 -320,0 0,-5 0,-5 320,0 320,0 0,5 0,5 -320,0 z m -50,-110 -20,0 0,-10 0,-10 -55,0 -55,0 0,-15 0,-15 -5,0 -5,0 0,15 0,15 -20,0 -20,0 0,-50 0,-50 15,0 15,0 0,5 0,5 5,0 5,0 0,5 0,5 5,0 5,0 0,-5 0,-5 5,0 5,0 0,-5 0,-5 15,0 15,0 0,10 0,10 25,0 25,0 0,5 0,5 5,0 5,0 0,-5 0,-5 25,0 25,0 0,-10 0,-10 20,0 20,0 0,10 0,10 25,0 25,0 0,-10 0,-10 20,0 20,0 0,10 0,10 10,0 10,0 0,5 0,5 5,0 5,0 0,-5 0,-5 25,0 25,0 0,-10 0,-10 20,0 20,0 0,10 0,10 5,0 5,0 0,15 0,15 -5,0 -5,0 0,10 0,10 5,0 5,0 0,15 0,15 -20,0 -20,0 0,-5 0,-5 -5,0 -5,0 0,5 0,5 -100,0 -100,0 0,5 0,5 -5,0 -5,0 0,5 0,5 -20,0 z m 0,-10 10,0 0,-5 0,-5 5,0 5,0 0,-35 0,-35 -20,0 -20,0 0,5 0,5 -5,0 -5,0 0,20 0,20 5,0 5,0 0,5 0,5 10,0 10,0 0,5 0,5 -5,0 -5,0 0,5 0,5 10,0 z m -5,-30 -5,0 0,-20 0,-20 5,0 5,0 0,20 0,20 -5,0 z m -155,10 10,0 0,-20 0,-20 5,0 5,0 0,5 0,5 5,0 5,0 0,-5 0,-5 5,0 5,0 0,20 0,20 10,0 10,0 0,-40 0,-40 -5,0 -5,0 0,5 0,5 -5,0 -5,0 0,5 0,5 -5,0 -5,0 0,5 0,5 -5,0 -5,0 0,-5 0,-5 -5,0 -5,0 0,-5 0,-5 -5,0 -5,0 0,-5 0,-5 -5,0 -5,0 0,40 0,40 10,0 z m 100,0 20,0 0,-25 0,-25 -5,0 -5,0 0,-5 0,-5 -15,0 -15,0 0,5 0,5 -5,0 -5,0 0,20 0,20 5,0 5,0 0,5 0,5 20,0 z m -5,-10 -5,0 0,-20 0,-20 5,0 5,0 0,20 0,20 -5,0 z m 105,10 10,0 0,-30 0,-30 -10,0 -10,0 0,30 0,30 10,0 z m 45,0 15,0 0,-5 0,-5 5,0 5,0 0,-5 0,-5 -10,0 -10,0 0,5 0,5 -5,0 -5,0 0,-20 0,-20 5,0 5,0 0,5 0,5 10,0 10,0 0,-5 0,-5 -5,0 -5,0 0,-5 0,-5 -15,0 -15,0 0,5 0,5 -5,0 -5,0 0,20 0,20 5,0 5,0 0,5 0,5 15,0 z m 45,0 10,0 0,-25 0,-25 5,0 5,0 0,25 0,25 10,0 10,0 0,-25 0,-25 -5,0 -5,0 0,-5 0,-5 -10,0 -10,0 0,-10 0,-10 -10,0 -10,0 0,40 0,40 10,0 z m 75,0 15,0 0,-5 0,-5 -10,0 -10,0 0,-10 0,-10 15,0 15,0 0,-10 0,-10 -5,0 -5,0 0,-5 0,-5 -15,0 -15,0 0,5 0,5 -5,0 -5,0 0,20 0,20 5,0 5,0 0,5 0,5 15,0 z m 0,-40 -5,0 0,-5 0,-5 5,0 5,0 0,5 0,5 -5,0 z m 55,40 10,0 0,-5 0,-5 -5,0 -5,0 0,-20 0,-20 5,0 5,0 0,-5 0,-5 -5,0 -5,0 0,-10 0,-10 -10,0 -10,0 0,35 0,35 5,0 5,0 0,5 0,5 10,0 z m -220,-70 10,0 0,-5 0,-5 -10,0 -10,0 0,5 0,5 10,0 z m 10,-100 -320,0 0,-5 0,-5 320,0 320,0 0,5 0,5 -320,0 z m -240,-20 -70,0 0,-5 0,-5 5,0 5,0 0,-20 0,-20 60,0 60,0 0,-5 0,-5 5,0 5,0 0,30 0,30 -70,0 z m 160,0 -70,0 0,-5 0,-5 5,0 5,0 0,-20 0,-20 60,0 60,0 0,-5 0,-5 5,0 5,0 0,30 0,30 -70,0 z m 160,0 -70,0 0,-5 0,-5 5,0 5,0 0,-20 0,-20 60,0 60,0 0,-5 0,-5 5,0 5,0 0,30 0,30 -70,0 z m 160,0 -70,0 0,-5 0,-5 5,0 5,0 0,-20 0,-20 60,0 60,0 0,-5 0,-5 5,0 5,0 0,30 0,30 -70,0 z m -525,-80 -35,0 0,-25 0,-25 20,0 20,0 0,-5 0,-5 15,0 15,0 0,30 0,30 -35,0 z m 125,0 -70,0 0,-5 0,-5 5,0 5,0 0,-20 0,-20 30,0 30,0 0,-5 0,-5 15,0 15,0 0,5 0,5 5,0 5,0 0,-5 0,-5 15,0 15,0 0,30 0,30 -70,0 z m 160,0 -70,0 0,-5 0,-5 5,0 5,0 0,-20 0,-20 10,0 10,0 0,-5 0,-5 20,0 20,0 0,5 0,5 20,0 20,0 0,-5 0,-5 15,0 15,0 0,30 0,30 -70,0 z m 160,0 -70,0 0,-5 0,-5 5,0 5,0 0,-20 0,-20 30,0 30,0 0,-5 0,-5 15,0 15,0 0,5 0,5 5,0 5,0 0,-5 0,-5 15,0 15,0 0,30 0,30 -70,0 z m 125,0 -35,0 0,-5 0,-5 5,0 5,0 0,-20 0,-20 10,0 10,0 0,-5 0,-5 20,0 20,0 0,30 0,30 -35,0 z"
       id="path4609"
       inkscape:connector-curvature="0" />
    <path
       style="fill:#692121"
       d="m -370.16946,200.44067 -70,0 0,-5 0,-5 5,0 5,0 0,-10 0,-10 50,0 50,0 0,-10 0,-10 10,0 10,0 0,-5 0,-5 5,0 5,0 0,30 0,30 -70,0 z m 160,0 -70,0 0,-5 0,-5 5,0 5,0 0,-10 0,-10 50,0 50,0 0,-10 0,-10 10,0 10,0 0,-5 0,-5 5,0 5,0 0,30 0,30 -70,0 z m 55,-10 5,0 0,-5 0,-5 -5,0 -5,0 0,5 0,5 5,0 z m 105,10 -70,0 0,-5 0,-5 5,0 5,0 0,-10 0,-10 50,0 50,0 0,-10 0,-10 10,0 10,0 0,-5 0,-5 5,0 5,0 0,30 0,30 -70,0 z m 160,0 -70,0 0,-5 0,-5 5,0 5,0 0,-10 0,-10 50,0 50,0 0,-10 0,-10 10,0 10,0 0,-5 0,-5 5,0 5,0 0,30 0,30 -70,0 z m 55,-10 5,0 0,-5 0,-5 -5,0 -5,0 0,5 0,5 5,0 z m -580,-70 -35,0 0,-15 0,-15 20,0 20,0 0,-10 0,-10 10,0 10,0 0,-5 0,-5 5,0 5,0 0,30 0,30 -35,0 z m 125,0 -70,0 0,-5 0,-5 5,0 5,0 0,-10 0,-10 50,0 50,0 0,-10 0,-10 10,0 10,0 0,-5 0,-5 5,0 5,0 0,30 0,30 -70,0 z m 160,0 -70,0 0,-5 0,-5 5,0 5,0 0,-10 0,-10 50,0 50,0 0,-10 0,-10 10,0 10,0 0,-5 0,-5 5,0 5,0 0,30 0,30 -70,0 z m 160,0 -70,0 0,-5 0,-5 5,0 5,0 0,-10 0,-10 50,0 50,0 0,-10 0,-10 10,0 10,0 0,-5 0,-5 5,0 5,0 0,30 0,30 -70,0 z m 125,0 -35,0 0,-5 0,-5 5,0 5,0 0,-10 0,-10 30,0 30,0 0,15 0,15 -35,0 z m -580,-40 -5,0 0,-5 0,-5 5,0 5,0 0,5 0,5 -5,0 z m 160,0 -5,0 0,-5 0,-5 5,0 5,0 0,5 0,5 -5,0 z m 105,0 -10,0 0,-5 0,-5 10,0 10,0 0,5 0,5 -10,0 z m 55,0 -5,0 0,-5 0,-5 5,0 5,0 0,5 0,5 -5,0 z m 160,0 -5,0 0,-5 0,-5 5,0 5,0 0,5 0,5 -5,0 z m 105,0 -10,0 0,-5 0,-5 10,0 10,0 0,5 0,5 -10,0 z m -290,-30 -320,0 0,-5 0,-5 320,0 320,0 0,5 0,5 -320,0 z m -50,-110 -20,0 0,-10 0,-10 -55,0 -55,0 0,-15 0,-15 -5,0 -5,0 0,15 0,15 -20,0 -20,0 0,-50 0,-50 15,0 15,0 0,5 0,5 5,0 5,0 0,5 0,5 5,0 5,0 0,-5 0,-5 5,0 5,0 0,-5 0,-5 15,0 15,0 0,10 0,10 25,0 25,0 0,5 0,5 5,0 5,0 0,-5 0,-5 25,0 25,0 0,-10 0,-10 20,0 20,0 0,10 0,10 25,0 25,0 0,-10 0,-10 20,0 20,0 0,10 0,10 10,0 10,0 0,5 0,5 5,0 5,0 0,-5 0,-5 25,0 25,0 0,-10 0,-10 20,0 20,0 0,10 0,10 5,0 5,0 0,15 0,15 -5,0 -5,0 0,10 0,10 5,0 5,0 0,15 0,15 -20,0 -20,0 0,-5 0,-5 -5,0 -5,0 0,5 0,5 -100,0 -100,0 0,5 0,5 -5,0 -5,0 0,5 0,5 -20,0 z m 0,-10 10,0 0,-5 0,-5 5,0 5,0 0,-35 0,-35 -20,0 -20,0 0,5 0,5 -5,0 -5,0 0,20 0,20 5,0 5,0 0,5 0,5 10,0 10,0 0,5 0,5 -5,0 -5,0 0,5 0,5 10,0 z m -5,-30 -5,0 0,-20 0,-20 5,0 5,0 0,20 0,20 -5,0 z m -155,10 10,0 0,-20 0,-20 5,0 5,0 0,5 0,5 5,0 5,0 0,-5 0,-5 5,0 5,0 0,20 0,20 10,0 10,0 0,-40 0,-40 -5,0 -5,0 0,5 0,5 -5,0 -5,0 0,5 0,5 -5,0 -5,0 0,5 0,5 -5,0 -5,0 0,-5 0,-5 -5,0 -5,0 0,-5 0,-5 -5,0 -5,0 0,-5 0,-5 -5,0 -5,0 0,40 0,40 10,0 z m 100,0 20,0 0,-25 0,-25 -5,0 -5,0 0,-5 0,-5 -15,0 -15,0 0,5 0,5 -5,0 -5,0 0,20 0,20 5,0 5,0 0,5 0,5 20,0 z m -5,-10 -5,0 0,-20 0,-20 5,0 5,0 0,20 0,20 -5,0 z m 105,10 10,0 0,-30 0,-30 -10,0 -10,0 0,30 0,30 10,0 z m 45,0 15,0 0,-5 0,-5 5,0 5,0 0,-5 0,-5 -10,0 -10,0 0,5 0,5 -5,0 -5,0 0,-20 0,-20 5,0 5,0 0,5 0,5 10,0 10,0 0,-5 0,-5 -5,0 -5,0 0,-5 0,-5 -15,0 -15,0 0,5 0,5 -5,0 -5,0 0,20 0,20 5,0 5,0 0,5 0,5 15,0 z m 45,0 10,0 0,-25 0,-25 5,0 5,0 0,25 0,25 10,0 10,0 0,-25 0,-25 -5,0 -5,0 0,-5 0,-5 -10,0 -10,0 0,-10 0,-10 -10,0 -10,0 0,40 0,40 10,0 z m 75,0 15,0 0,-5 0,-5 -10,0 -10,0 0,-10 0,-10 15,0 15,0 0,-10 0,-10 -5,0 -5,0 0,-5 0,-5 -15,0 -15,0 0,5 0,5 -5,0 -5,0 0,20 0,20 5,0 5,0 0,5 0,5 15,0 z m 0,-40 -5,0 0,-5 0,-5 5,0 5,0 0,5 0,5 -5,0 z m 55,40 10,0 0,-5 0,-5 -5,0 -5,0 0,-20 0,-20 5,0 5,0 0,-5 0,-5 -5,0 -5,0 0,-10 0,-10 -10,0 -10,0 0,35 0,35 5,0 5,0 0,5 0,5 10,0 z m -220,-70 10,0 0,-5 0,-5 -10,0 -10,0 0,5 0,5 10,0 z m 10,-100 -320,0 0,-5 0,-5 320,0 320,0 0,5 0,5 -320,0 z m -240,-20 -70,0 0,-5 0,-5 5,0 5,0 0,-10 0,-10 50,0 50,0 0,-10 0,-10 10,0 10,0 0,-5 0,-5 5,0 5,0 0,30 0,30 -70,0 z m 160,0 -70,0 0,-5 0,-5 5,0 5,0 0,-10 0,-10 50,0 50,0 0,-10 0,-10 10,0 10,0 0,-5 0,-5 5,0 5,0 0,30 0,30 -70,0 z m 55,-10 5,0 0,-5 0,-5 -5,0 -5,0 0,5 0,5 5,0 z m 105,10 -70,0 0,-5 0,-5 5,0 5,0 0,-10 0,-10 50,0 50,0 0,-10 0,-10 10,0 10,0 0,-5 0,-5 5,0 5,0 0,30 0,30 -70,0 z m 160,0 -70,0 0,-5 0,-5 5,0 5,0 0,-10 0,-10 50,0 50,0 0,-10 0,-10 10,0 10,0 0,-5 0,-5 5,0 5,0 0,30 0,30 -70,0 z m 55,-10 5,0 0,-5 0,-5 -5,0 -5,0 0,5 0,5 5,0 z m -580,-70 -35,0 0,-15 0,-15 20,0 20,0 0,-10 0,-10 10,0 10,0 0,-5 0,-5 5,0 5,0 0,30 0,30 -35,0 z m 125,0 -70,0 0,-5 0,-5 5,0 5,0 0,-10 0,-10 50,0 50,0 0,-10 0,-10 10,0 10,0 0,-5 0,-5 5,0 5,0 0,30 0,30 -70,0 z m 160,0 -70,0 0,-5 0,-5 5,0 5,0 0,-10 0,-10 50,0 50,0 0,-10 0,-10 10,0 10,0 0,-5 0,-5 5,0 5,0 0,30 0,30 -70,0 z m 160,0 -70,0 0,-5 0,-5 5,0 5,0 0,-10 0,-10 50,0 50,0 0,-10 0,-10 10,0 10,0 0,-5 0,-5 5,0 5,0 0,30 0,30 -70,0 z m 125,0 -35,0 0,-5 0,-5 5,0 5,0 0,-10 0,-10 30,0 30,0 0,15 0,15 -35,0 z m -580,-40 -5,0 0,-5 0,-5 5,0 5,0 0,5 0,5 -5,0 z m 160,0 -5,0 0,-5 0,-5 5,0 5,0 0,5 0,5 -5,0 z m 105,0 -10,0 0,-5 0,-5 10,0 10,0 0,5 0,5 -10,0 z m 55,0 -5,0 0,-5 0,-5 5,0 5,0 0,5 0,5 -5,0 z m 160,0 -5,0 0,-5 0,-5 5,0 5,0 0,5 0,5 -5,0 z m 105,0 -10,0 0,-5 0,-5 10,0 10,0 0,5 0,5 -10,0 z"
       id="path4607"
       inkscape:connector-curvature="0" />
    <path
       style="fill:#631f1f"
       d="m -370.16946,200.44067 -70,0 0,-5 0,-5 10,0 10,0 0,-5 0,-5 -5,0 -5,0 0,-5 0,-5 35,0 35,0 0,5 0,5 -15,0 -15,0 0,5 0,5 40,0 40,0 0,-25 0,-25 5,0 5,0 0,30 0,30 -70,0 z m 160,0 -70,0 0,-5 0,-5 30,0 30,0 0,-5 0,-5 -20,0 -20,0 0,-5 0,-5 45,0 45,0 0,-10 0,-10 5,0 5,0 0,15 0,15 -25,0 -25,0 0,5 0,5 30,0 30,0 0,-25 0,-25 5,0 5,0 0,30 0,30 -70,0 z m 160,0 -70,0 0,-5 0,-5 10,0 10,0 0,-5 0,-5 -5,0 -5,0 0,-5 0,-5 35,0 35,0 0,5 0,5 -15,0 -15,0 0,5 0,5 40,0 40,0 0,-25 0,-25 5,0 5,0 0,30 0,30 -70,0 z m 160,0 -70,0 0,-5 0,-5 30,0 30,0 0,-5 0,-5 -20,0 -20,0 0,-5 0,-5 45,0 45,0 0,-10 0,-10 5,0 5,0 0,15 0,15 -25,0 -25,0 0,5 0,5 30,0 30,0 0,-25 0,-25 5,0 5,0 0,30 0,30 -70,0 z m -445,-20 -15,0 0,-5 0,-5 10,0 10,0 0,-5 0,-5 5,0 5,0 0,10 0,10 -15,0 z m 320,0 -15,0 0,-5 0,-5 10,0 10,0 0,-5 0,-5 5,0 5,0 0,10 0,10 -15,0 z m -400,-60 -35,0 0,-5 0,-5 30,0 30,0 0,-10 0,-10 -5,0 -5,0 0,5 0,5 -25,0 -25,0 0,-5 0,-5 20,0 20,0 0,-10 0,-10 10,0 10,0 0,-5 0,-5 5,0 5,0 0,30 0,30 -35,0 z m 125,0 -70,0 0,-5 0,-5 20,0 20,0 0,-5 0,-5 -15,0 -15,0 0,-5 0,-5 35,0 35,0 0,5 0,5 -15,0 -15,0 0,5 0,5 40,0 40,0 0,-10 0,-10 -5,0 -5,0 0,5 0,5 -15,0 -15,0 0,-5 0,-5 10,0 10,0 0,-10 0,-10 5,0 5,0 0,5 0,5 5,0 5,0 0,-10 0,-10 5,0 5,0 0,30 0,30 -70,0 z m 160,0 -70,0 0,-5 0,-5 65,0 65,0 0,-10 0,-10 -5,0 -5,0 0,5 0,5 -55,0 -55,0 0,-5 0,-5 50,0 50,0 0,-10 0,-10 10,0 10,0 0,-5 0,-5 5,0 5,0 0,30 0,30 -70,0 z m 160,0 -70,0 0,-5 0,-5 20,0 20,0 0,-5 0,-5 -15,0 -15,0 0,-5 0,-5 35,0 35,0 0,5 0,5 -15,0 -15,0 0,5 0,5 40,0 40,0 0,-10 0,-10 -5,0 -5,0 0,5 0,5 -15,0 -15,0 0,-5 0,-5 10,0 10,0 0,-10 0,-10 5,0 5,0 0,5 0,5 5,0 5,0 0,-10 0,-10 5,0 5,0 0,30 0,30 -70,0 z m 125,0 -35,0 0,-5 0,-5 35,0 35,0 0,5 0,5 -35,0 z m 5,-20 -30,0 0,-5 0,-5 30,0 30,0 0,5 0,5 -30,0 z m -290,-50 -320,0 0,-5 0,-5 320,0 320,0 0,5 0,5 -320,0 z m -50,-110 -20,0 0,-10 0,-10 -55,0 -55,0 0,-15 0,-15 -5,0 -5,0 0,15 0,15 -20,0 -20,0 0,-50 0,-50 15,0 15,0 0,5 0,5 5,0 5,0 0,5 0,5 5,0 5,0 0,-5 0,-5 5,0 5,0 0,-5 0,-5 15,0 15,0 0,10 0,10 25,0 25,0 0,5 0,5 5,0 5,0 0,-5 0,-5 25,0 25,0 0,-10 0,-10 20,0 20,0 0,10 0,10 25,0 25,0 0,-10 0,-10 20,0 20,0 0,10 0,10 10,0 10,0 0,5 0,5 5,0 5,0 0,-5 0,-5 25,0 25,0 0,-10 0,-10 20,0 20,0 0,10 0,10 5,0 5,0 0,15 0,15 -5,0 -5,0 0,10 0,10 5,0 5,0 0,15 0,15 -20,0 -20,0 0,-5 0,-5 -5,0 -5,0 0,5 0,5 -100,0 -100,0 0,5 0,5 -5,0 -5,0 0,5 0,5 -20,0 z m 0,-10 10,0 0,-5 0,-5 5,0 5,0 0,-35 0,-35 -20,0 -20,0 0,5 0,5 -5,0 -5,0 0,20 0,20 5,0 5,0 0,5 0,5 10,0 10,0 0,5 0,5 -5,0 -5,0 0,5 0,5 10,0 z m -5,-30 -5,0 0,-20 0,-20 5,0 5,0 0,20 0,20 -5,0 z m -155,10 10,0 0,-20 0,-20 5,0 5,0 0,5 0,5 5,0 5,0 0,-5 0,-5 5,0 5,0 0,20 0,20 10,0 10,0 0,-40 0,-40 -5,0 -5,0 0,5 0,5 -5,0 -5,0 0,5 0,5 -5,0 -5,0 0,5 0,5 -5,0 -5,0 0,-5 0,-5 -5,0 -5,0 0,-5 0,-5 -5,0 -5,0 0,-5 0,-5 -5,0 -5,0 0,40 0,40 10,0 z m 100,0 20,0 0,-25 0,-25 -5,0 -5,0 0,-5 0,-5 -15,0 -15,0 0,5 0,5 -5,0 -5,0 0,20 0,20 5,0 5,0 0,5 0,5 20,0 z m -5,-10 -5,0 0,-20 0,-20 5,0 5,0 0,20 0,20 -5,0 z m 105,10 10,0 0,-30 0,-30 -10,0 -10,0 0,30 0,30 10,0 z m 45,0 15,0 0,-5 0,-5 5,0 5,0 0,-5 0,-5 -10,0 -10,0 0,5 0,5 -5,0 -5,0 0,-20 0,-20 5,0 5,0 0,5 0,5 10,0 10,0 0,-5 0,-5 -5,0 -5,0 0,-5 0,-5 -15,0 -15,0 0,5 0,5 -5,0 -5,0 0,20 0,20 5,0 5,0 0,5 0,5 15,0 z m 45,0 10,0 0,-25 0,-25 5,0 5,0 0,25 0,25 10,0 10,0 0,-25 0,-25 -5,0 -5,0 0,-5 0,-5 -10,0 -10,0 0,-10 0,-10 -10,0 -10,0 0,40 0,40 10,0 z m 75,0 15,0 0,-5 0,-5 -10,0 -10,0 0,-10 0,-10 15,0 15,0 0,-10 0,-10 -5,0 -5,0 0,-5 0,-5 -15,0 -15,0 0,5 0,5 -5,0 -5,0 0,20 0,20 5,0 5,0 0,5 0,5 15,0 z m 0,-40 -5,0 0,-5 0,-5 5,0 5,0 0,5 0,5 -5,0 z m 55,40 10,0 0,-5 0,-5 -5,0 -5,0 0,-20 0,-20 5,0 5,0 0,-5 0,-5 -5,0 -5,0 0,-10 0,-10 -10,0 -10,0 0,35 0,35 5,0 5,0 0,5 0,5 10,0 z m -220,-70 10,0 0,-5 0,-5 -10,0 -10,0 0,5 0,5 10,0 z m 10,-100 -320,0 0,-5 0,-5 320,0 320,0 0,5 0,5 -320,0 z m -240,-20 -70,0 0,-5 0,-5 10,0 10,0 0,-5 0,-5 -5,0 -5,0 0,-5 0,-5 35,0 35,0 0,5 0,5 -15,0 -15,0 0,5 0,5 40,0 40,0 0,-25 0,-25 5,0 5,0 0,30 0,30 -70,0 z m 160,0 -70,0 0,-5 0,-5 30,0 30,0 0,-5 0,-5 -20,0 -20,0 0,-5 0,-5 45,0 45,0 0,-10 0,-10 5,0 5,0 0,15 0,15 -25,0 -25,0 0,5 0,5 30,0 30,0 0,-25 0,-25 5,0 5,0 0,30 0,30 -70,0 z m 160,0 -70,0 0,-5 0,-5 10,0 10,0 0,-5 0,-5 -5,0 -5,0 0,-5 0,-5 35,0 35,0 0,5 0,5 -15,0 -15,0 0,5 0,5 40,0 40,0 0,-25 0,-25 5,0 5,0 0,30 0,30 -70,0 z m 160,0 -70,0 0,-5 0,-5 30,0 30,0 0,-5 0,-5 -20,0 -20,0 0,-5 0,-5 45,0 45,0 0,-10 0,-10 5,0 5,0 0,15 0,15 -25,0 -25,0 0,5 0,5 30,0 30,0 0,-25 0,-25 5,0 5,0 0,30 0,30 -70,0 z m -445,-20 -15,0 0,-5 0,-5 10,0 10,0 0,-5 0,-5 5,0 5,0 0,10 0,10 -15,0 z m 320,0 -15,0 0,-5 0,-5 10,0 10,0 0,-5 0,-5 5,0 5,0 0,10 0,10 -15,0 z m -400,-60 -35,0 0,-5 0,-5 30,0 30,0 0,-10 0,-10 -5,0 -5,0 0,5 0,5 -25,0 -25,0 0,-5 0,-5 20,0 20,0 0,-10 0,-10 10,0 10,0 0,-5 0,-5 5,0 5,0 0,30 0,30 -35,0 z m 125,0 -70,0 0,-5 0,-5 20,0 20,0 0,-5 0,-5 -15,0 -15,0 0,-5 0,-5 35,0 35,0 0,5 0,5 -15,0 -15,0 0,5 0,5 40,0 40,0 0,-10 0,-10 -5,0 -5,0 0,5 0,5 -15,0 -15,0 0,-5 0,-5 10,0 10,0 0,-10 0,-10 5,0 5,0 0,5 0,5 5,0 5,0 0,-10 0,-10 5,0 5,0 0,30 0,30 -70,0 z m 160,0 -70,0 0,-5 0,-5 65,0 65,0 0,-10 0,-10 -5,0 -5,0 0,5 0,5 -55,0 -55,0 0,-5 0,-5 50,0 50,0 0,-10 0,-10 10,0 10,0 0,-5 0,-5 5,0 5,0 0,30 0,30 -70,0 z m 160,0 -70,0 0,-5 0,-5 20,0 20,0 0,-5 0,-5 -15,0 -15,0 0,-5 0,-5 35,0 35,0 0,5 0,5 -15,0 -15,0 0,5 0,5 40,0 40,0 0,-10 0,-10 -5,0 -5,0 0,5 0,5 -15,0 -15,0 0,-5 0,-5 10,0 10,0 0,-10 0,-10 5,0 5,0 0,5 0,5 5,0 5,0 0,-10 0,-10 5,0 5,0 0,30 0,30 -70,0 z m 125,0 -35,0 0,-5 0,-5 35,0 35,0 0,5 0,5 -35,0 z m 5,-20 -30,0 0,-5 0,-5 30,0 30,0 0,5 0,5 -30,0 z"
       id="path4605"
       inkscape:connector-curvature="0" />
    <path
       style="fill:#312621"
       d="m -370.16946,200.44067 -70,0 0,-5 0,-5 65,0 65,0 0,-25 0,-25 5,0 5,0 0,30 0,30 -70,0 z m 160,0 -70,0 0,-5 0,-5 65,0 65,0 0,-25 0,-25 5,0 5,0 0,30 0,30 -70,0 z m 160,0 -70,0 0,-5 0,-5 65,0 65,0 0,-25 0,-25 5,0 5,0 0,30 0,30 -70,0 z m 160,0 -70,0 0,-5 0,-5 65,0 65,0 0,-25 0,-25 5,0 5,0 0,30 0,30 -70,0 z m -525,-80 -35,0 0,-5 0,-5 30,0 30,0 0,-25 0,-25 5,0 5,0 0,30 0,30 -35,0 z m 125,0 -70,0 0,-5 0,-5 65,0 65,0 0,-25 0,-25 5,0 5,0 0,30 0,30 -70,0 z m 160,0 -70,0 0,-5 0,-5 65,0 65,0 0,-25 0,-25 5,0 5,0 0,30 0,30 -70,0 z m 160,0 -70,0 0,-5 0,-5 65,0 65,0 0,-25 0,-25 5,0 5,0 0,30 0,30 -70,0 z m 125,0 -35,0 0,-5 0,-5 35,0 35,0 0,5 0,5 -35,0 z m -285,-70 -320,0 0,-5 0,-5 320,0 320,0 0,5 0,5 -320,0 z m -50,-110 -20,0 0,-10 0,-10 -55,0 -55,0 0,-15 0,-15 -5,0 -5,0 0,15 0,15 -20,0 -20,0 0,-50 0,-50 15,0 15,0 0,5 0,5 5,0 5,0 0,5 0,5 5,0 5,0 0,-5 0,-5 5,0 5,0 0,-5 0,-5 15,0 15,0 0,10 0,10 25,0 25,0 0,5 0,5 5,0 5,0 0,-5 0,-5 25,0 25,0 0,-10 0,-10 20,0 20,0 0,10 0,10 25,0 25,0 0,-10 0,-10 20,0 20,0 0,10 0,10 10,0 10,0 0,5 0,5 5,0 5,0 0,-5 0,-5 25,0 25,0 0,-10 0,-10 20,0 20,0 0,10 0,10 5,0 5,0 0,15 0,15 -5,0 -5,0 0,10 0,10 5,0 5,0 0,15 0,15 -20,0 -20,0 0,-5 0,-5 -5,0 -5,0 0,5 0,5 -100,0 -100,0 0,5 0,5 -5,0 -5,0 0,5 0,5 -20,0 z m 0,-10 10,0 0,-5 0,-5 5,0 5,0 0,-35 0,-35 -20,0 -20,0 0,5 0,5 -5,0 -5,0 0,20 0,20 5,0 5,0 0,5 0,5 10,0 10,0 0,5 0,5 -5,0 -5,0 0,5 0,5 10,0 z m -5,-30 -5,0 0,-20 0,-20 5,0 5,0 0,20 0,20 -5,0 z m -155,10 10,0 0,-20 0,-20 5,0 5,0 0,5 0,5 5,0 5,0 0,-5 0,-5 5,0 5,0 0,20 0,20 10,0 10,0 0,-40 0,-40 -5,0 -5,0 0,5 0,5 -5,0 -5,0 0,5 0,5 -5,0 -5,0 0,5 0,5 -5,0 -5,0 0,-5 0,-5 -5,0 -5,0 0,-5 0,-5 -5,0 -5,0 0,-5 0,-5 -5,0 -5,0 0,40 0,40 10,0 z m 100,0 20,0 0,-25 0,-25 -5,0 -5,0 0,-5 0,-5 -15,0 -15,0 0,5 0,5 -5,0 -5,0 0,20 0,20 5,0 5,0 0,5 0,5 20,0 z m -5,-10 -5,0 0,-20 0,-20 5,0 5,0 0,20 0,20 -5,0 z m 105,10 10,0 0,-30 0,-30 -10,0 -10,0 0,30 0,30 10,0 z m 45,0 15,0 0,-5 0,-5 5,0 5,0 0,-5 0,-5 -10,0 -10,0 0,5 0,5 -5,0 -5,0 0,-20 0,-20 5,0 5,0 0,5 0,5 10,0 10,0 0,-5 0,-5 -5,0 -5,0 0,-5 0,-5 -15,0 -15,0 0,5 0,5 -5,0 -5,0 0,20 0,20 5,0 5,0 0,5 0,5 15,0 z m 45,0 10,0 0,-25 0,-25 5,0 5,0 0,25 0,25 10,0 10,0 0,-25 0,-25 -5,0 -5,0 0,-5 0,-5 -10,0 -10,0 0,-10 0,-10 -10,0 -10,0 0,40 0,40 10,0 z m 75,0 15,0 0,-5 0,-5 -10,0 -10,0 0,-10 0,-10 15,0 15,0 0,-10 0,-10 -5,0 -5,0 0,-5 0,-5 -15,0 -15,0 0,5 0,5 -5,0 -5,0 0,20 0,20 5,0 5,0 0,5 0,5 15,0 z m 0,-40 -5,0 0,-5 0,-5 5,0 5,0 0,5 0,5 -5,0 z m 55,40 10,0 0,-5 0,-5 -5,0 -5,0 0,-20 0,-20 5,0 5,0 0,-5 0,-5 -5,0 -5,0 0,-10 0,-10 -10,0 -10,0 0,35 0,35 5,0 5,0 0,5 0,5 10,0 z m -220,-70 10,0 0,-5 0,-5 -10,0 -10,0 0,5 0,5 10,0 z m 10,-100 -320,0 0,-5 0,-5 320,0 320,0 0,5 0,5 -320,0 z m -240,-20 -70,0 0,-5 0,-5 65,0 65,0 0,-25 0,-25 5,0 5,0 0,30 0,30 -70,0 z m 160,0 -70,0 0,-5 0,-5 65,0 65,0 0,-25 0,-25 5,0 5,0 0,30 0,30 -70,0 z m 160,0 -70,0 0,-5 0,-5 65,0 65,0 0,-25 0,-25 5,0 5,0 0,30 0,30 -70,0 z m 160,0 -70,0 0,-5 0,-5 65,0 65,0 0,-25 0,-25 5,0 5,0 0,30 0,30 -70,0 z m -525,-80 -35,0 0,-5 0,-5 30,0 30,0 0,-25 0,-25 5,0 5,0 0,30 0,30 -35,0 z m 125,0 -70,0 0,-5 0,-5 65,0 65,0 0,-25 0,-25 5,0 5,0 0,30 0,30 -70,0 z m 160,0 -70,0 0,-5 0,-5 65,0 65,0 0,-25 0,-25 5,0 5,0 0,30 0,30 -70,0 z m 160,0 -70,0 0,-5 0,-5 65,0 65,0 0,-25 0,-25 5,0 5,0 0,30 0,30 -70,0 z m 125,0 -35,0 0,-5 0,-5 35,0 35,0 0,5 0,5 -35,0 z"
       id="path4603"
       inkscape:connector-curvature="0" />
    <path
       style="fill:#4e1313"
       d="m -370.16946,200.44067 -70,0 0,-5 0,-5 65,0 65,0 0,-25 0,-25 5,0 5,0 0,30 0,30 -70,0 z m 160,0 -70,0 0,-5 0,-5 65,0 65,0 0,-25 0,-25 5,0 5,0 0,30 0,30 -70,0 z m 160,0 -70,0 0,-5 0,-5 65,0 65,0 0,-25 0,-25 5,0 5,0 0,30 0,30 -70,0 z m 160,0 -70,0 0,-5 0,-5 65,0 65,0 0,-25 0,-25 5,0 5,0 0,30 0,30 -70,0 z m -525,-80 -35,0 0,-5 0,-5 30,0 30,0 0,-25 0,-25 5,0 5,0 0,30 0,30 -35,0 z m 125,0 -70,0 0,-5 0,-5 65,0 65,0 0,-25 0,-25 5,0 5,0 0,30 0,30 -70,0 z m 160,0 -70,0 0,-5 0,-5 65,0 65,0 0,-25 0,-25 5,0 5,0 0,30 0,30 -70,0 z m 160,0 -70,0 0,-5 0,-5 65,0 65,0 0,-25 0,-25 5,0 5,0 0,30 0,30 -70,0 z m 125,0 -35,0 0,-5 0,-5 35,0 35,0 0,5 0,5 -35,0 z m -335,-180 -20,0 0,-10 0,-10 -55,0 -55,0 0,-15 0,-15 -5,0 -5,0 0,15 0,15 -20,0 -20,0 0,-50 0,-50 15,0 15,0 0,5 0,5 5,0 5,0 0,5 0,5 5,0 5,0 0,-5 0,-5 5,0 5,0 0,-5 0,-5 15,0 15,0 0,10 0,10 25,0 25,0 0,5 0,5 5,0 5,0 0,-5 0,-5 25,0 25,0 0,-10 0,-10 20,0 20,0 0,10 0,10 25,0 25,0 0,-10 0,-10 20,0 20,0 0,10 0,10 10,0 10,0 0,5 0,5 5,0 5,0 0,-5 0,-5 25,0 25,0 0,-10 0,-10 20,0 20,0 0,10 0,10 5,0 5,0 0,15 0,15 -5,0 -5,0 0,10 0,10 5,0 5,0 0,15 0,15 -20,0 -20,0 0,-5 0,-5 -5,0 -5,0 0,5 0,5 -100,0 -100,0 0,5 0,5 -5,0 -5,0 0,5 0,5 -20,0 z m 0,-10 10,0 0,-5 0,-5 5,0 5,0 0,-35 0,-35 -20,0 -20,0 0,5 0,5 -5,0 -5,0 0,20 0,20 5,0 5,0 0,5 0,5 10,0 10,0 0,5 0,5 -5,0 -5,0 0,5 0,5 10,0 z m -5,-30 -5,0 0,-20 0,-20 5,0 5,0 0,20 0,20 -5,0 z m -155,10 10,0 0,-20 0,-20 5,0 5,0 0,5 0,5 5,0 5,0 0,-5 0,-5 5,0 5,0 0,20 0,20 10,0 10,0 0,-40 0,-40 -5,0 -5,0 0,5 0,5 -5,0 -5,0 0,5 0,5 -5,0 -5,0 0,5 0,5 -5,0 -5,0 0,-5 0,-5 -5,0 -5,0 0,-5 0,-5 -5,0 -5,0 0,-5 0,-5 -5,0 -5,0 0,40 0,40 10,0 z m 100,0 20,0 0,-25 0,-25 -5,0 -5,0 0,-5 0,-5 -15,0 -15,0 0,5 0,5 -5,0 -5,0 0,20 0,20 5,0 5,0 0,5 0,5 20,0 z m -5,-10 -5,0 0,-20 0,-20 5,0 5,0 0,20 0,20 -5,0 z m 105,10 10,0 0,-30 0,-30 -10,0 -10,0 0,30 0,30 10,0 z m 45,0 15,0 0,-5 0,-5 5,0 5,0 0,-5 0,-5 -10,0 -10,0 0,5 0,5 -5,0 -5,0 0,-20 0,-20 5,0 5,0 0,5 0,5 10,0 10,0 0,-5 0,-5 -5,0 -5,0 0,-5 0,-5 -15,0 -15,0 0,5 0,5 -5,0 -5,0 0,20 0,20 5,0 5,0 0,5 0,5 15,0 z m 45,0 10,0 0,-25 0,-25 5,0 5,0 0,25 0,25 10,0 10,0 0,-25 0,-25 -5,0 -5,0 0,-5 0,-5 -10,0 -10,0 0,-10 0,-10 -10,0 -10,0 0,40 0,40 10,0 z m 75,0 15,0 0,-5 0,-5 -10,0 -10,0 0,-10 0,-10 15,0 15,0 0,-10 0,-10 -5,0 -5,0 0,-5 0,-5 -15,0 -15,0 0,5 0,5 -5,0 -5,0 0,20 0,20 5,0 5,0 0,5 0,5 15,0 z m 0,-40 -5,0 0,-5 0,-5 5,0 5,0 0,5 0,5 -5,0 z m 55,40 10,0 0,-5 0,-5 -5,0 -5,0 0,-20 0,-20 5,0 5,0 0,-5 0,-5 -5,0 -5,0 0,-10 0,-10 -10,0 -10,0 0,35 0,35 5,0 5,0 0,5 0,5 10,0 z m -220,-70 10,0 0,-5 0,-5 -10,0 -10,0 0,5 0,5 10,0 z m -230,-120 -70,0 0,-5 0,-5 65,0 65,0 0,-25 0,-25 5,0 5,0 0,30 0,30 -70,0 z m 160,0 -70,0 0,-5 0,-5 65,0 65,0 0,-25 0,-25 5,0 5,0 0,30 0,30 -70,0 z m 160,0 -70,0 0,-5 0,-5 65,0 65,0 0,-25 0,-25 5,0 5,0 0,30 0,30 -70,0 z m 160,0 -70,0 0,-5 0,-5 65,0 65,0 0,-25 0,-25 5,0 5,0 0,30 0,30 -70,0 z m -525,-80 -35,0 0,-5 0,-5 30,0 30,0 0,-25 0,-25 5,0 5,0 0,30 0,30 -35,0 z m 125,0 -70,0 0,-5 0,-5 65,0 65,0 0,-25 0,-25 5,0 5,0 0,30 0,30 -70,0 z m 160,0 -70,0 0,-5 0,-5 65,0 65,0 0,-25 0,-25 5,0 5,0 0,30 0,30 -70,0 z m 160,0 -70,0 0,-5 0,-5 65,0 65,0 0,-25 0,-25 5,0 5,0 0,30 0,30 -70,0 z m 125,0 -35,0 0,-5 0,-5 35,0 35,0 0,5 0,5 -35,0 z"
       id="path4601"
       inkscape:connector-curvature="0" />
    <path
       style="fill:#380d0d"
       d="m -365.16946,200.44067 -65,0 0,-5 0,-5 60,0 60,0 0,-20 0,-20 5,0 5,0 0,25 0,25 -65,0 z m 160,0 -65,0 0,-5 0,-5 60,0 60,0 0,-20 0,-20 5,0 5,0 0,25 0,25 -65,0 z m 160,0 -65,0 0,-5 0,-5 60,0 60,0 0,-20 0,-20 5,0 5,0 0,25 0,25 -65,0 z m 160,0 -65,0 0,-5 0,-5 60,0 60,0 0,-20 0,-20 5,0 5,0 0,25 0,25 -65,0 z m -530,-80 -35,0 0,-5 0,-5 30,0 30,0 0,-25 0,-25 5,0 5,0 0,30 0,30 -35,0 z m 130,0 -65,0 0,-5 0,-5 60,0 60,0 0,-20 0,-20 5,0 5,0 0,25 0,25 -65,0 z m 160,0 -65,0 0,-5 0,-5 60,0 60,0 0,-25 0,-25 5,0 5,0 0,30 0,30 -65,0 z m 160,0 -65,0 0,-5 0,-5 60,0 60,0 0,-20 0,-20 5,0 5,0 0,25 0,25 -65,0 z m 125,0 -30,0 0,-5 0,-5 30,0 30,0 0,5 0,5 -30,0 z m -340,-180 -20,0 0,-10 0,-10 -55,0 -55,0 0,-15 0,-15 -5,0 -5,0 0,15 0,15 -20,0 -20,0 0,-50 0,-50 15,0 15,0 0,5 0,5 5,0 5,0 0,5 0,5 5,0 5,0 0,-5 0,-5 5,0 5,0 0,-5 0,-5 15,0 15,0 0,10 0,10 25,0 25,0 0,5 0,5 5,0 5,0 0,-5 0,-5 25,0 25,0 0,-10 0,-10 20,0 20,0 0,10 0,10 25,0 25,0 0,-10 0,-10 20,0 20,0 0,10 0,10 10,0 10,0 0,5 0,5 5,0 5,0 0,-5 0,-5 25,0 25,0 0,-10 0,-10 20,0 20,0 0,10 0,10 5,0 5,0 0,15 0,15 -5,0 -5,0 0,10 0,10 5,0 5,0 0,15 0,15 -20,0 -20,0 0,-5 0,-5 -5,0 -5,0 0,5 0,5 -100,0 -100,0 0,5 0,5 -5,0 -5,0 0,5 0,5 -20,0 z m 0,-10 10,0 0,-5 0,-5 5,0 5,0 0,-35 0,-35 -20,0 -20,0 0,5 0,5 -5,0 -5,0 0,20 0,20 5,0 5,0 0,5 0,5 10,0 10,0 0,5 0,5 -5,0 -5,0 0,5 0,5 10,0 z m -5,-30 -5,0 0,-20 0,-20 5,0 5,0 0,20 0,20 -5,0 z m -155,10 10,0 0,-20 0,-20 5,0 5,0 0,5 0,5 5,0 5,0 0,-5 0,-5 5,0 5,0 0,20 0,20 10,0 10,0 0,-40 0,-40 -5,0 -5,0 0,5 0,5 -5,0 -5,0 0,5 0,5 -5,0 -5,0 0,5 0,5 -5,0 -5,0 0,-5 0,-5 -5,0 -5,0 0,-5 0,-5 -5,0 -5,0 0,-5 0,-5 -5,0 -5,0 0,40 0,40 10,0 z m 100,0 20,0 0,-25 0,-25 -5,0 -5,0 0,-5 0,-5 -15,0 -15,0 0,5 0,5 -5,0 -5,0 0,20 0,20 5,0 5,0 0,5 0,5 20,0 z m -5,-10 -5,0 0,-20 0,-20 5,0 5,0 0,20 0,20 -5,0 z m 105,10 10,0 0,-30 0,-30 -10,0 -10,0 0,30 0,30 10,0 z m 45,0 15,0 0,-5 0,-5 5,0 5,0 0,-5 0,-5 -10,0 -10,0 0,5 0,5 -5,0 -5,0 0,-20 0,-20 5,0 5,0 0,5 0,5 10,0 10,0 0,-5 0,-5 -5,0 -5,0 0,-5 0,-5 -15,0 -15,0 0,5 0,5 -5,0 -5,0 0,20 0,20 5,0 5,0 0,5 0,5 15,0 z m 45,0 10,0 0,-25 0,-25 5,0 5,0 0,25 0,25 10,0 10,0 0,-25 0,-25 -5,0 -5,0 0,-5 0,-5 -10,0 -10,0 0,-10 0,-10 -10,0 -10,0 0,40 0,40 10,0 z m 75,0 15,0 0,-5 0,-5 -10,0 -10,0 0,-10 0,-10 15,0 15,0 0,-10 0,-10 -5,0 -5,0 0,-5 0,-5 -15,0 -15,0 0,5 0,5 -5,0 -5,0 0,20 0,20 5,0 5,0 0,5 0,5 15,0 z m 0,-40 -5,0 0,-5 0,-5 5,0 5,0 0,5 0,5 -5,0 z m 55,40 10,0 0,-5 0,-5 -5,0 -5,0 0,-20 0,-20 5,0 5,0 0,-5 0,-5 -5,0 -5,0 0,-10 0,-10 -10,0 -10,0 0,35 0,35 5,0 5,0 0,5 0,5 10,0 z m -220,-70 10,0 0,-5 0,-5 -10,0 -10,0 0,5 0,5 10,0 z m -225,-120 -65,0 0,-5 0,-5 60,0 60,0 0,-20 0,-20 5,0 5,0 0,25 0,25 -65,0 z m 160,0 -65,0 0,-5 0,-5 60,0 60,0 0,-20 0,-20 5,0 5,0 0,25 0,25 -65,0 z m 160,0 -65,0 0,-5 0,-5 60,0 60,0 0,-20 0,-20 5,0 5,0 0,25 0,25 -65,0 z m 160,0 -65,0 0,-5 0,-5 60,0 60,0 0,-20 0,-20 5,0 5,0 0,25 0,25 -65,0 z m -530,-80 -35,0 0,-5 0,-5 30,0 30,0 0,-25 0,-25 5,0 5,0 0,30 0,30 -35,0 z m 130,0 -65,0 0,-5 0,-5 60,0 60,0 0,-20 0,-20 5,0 5,0 0,25 0,25 -65,0 z m 160,0 -65,0 0,-5 0,-5 60,0 60,0 0,-25 0,-25 5,0 5,0 0,30 0,30 -65,0 z m 160,0 -65,0 0,-5 0,-5 60,0 60,0 0,-20 0,-20 5,0 5,0 0,25 0,25 -65,0 z m 125,0 -30,0 0,-5 0,-5 30,0 30,0 0,5 0,5 -30,0 z"
       id="path4599"
       inkscape:connector-curvature="0" />
    <path
       style="fill:#000000"
       d="m -180.16946,-59.55933 -20,0 0,-10 0,-10 -55,0 -55,0 0,-15 0,-15 -5,0 -5,0 0,15 0,15 -20,0 -20,0 0,-50 0,-50 15,0 15,0 0,5 0,5 5,0 5,0 0,5 0,5 5,0 5,0 0,-5 0,-5 5,0 5,0 0,-5 0,-5 15,0 15,0 0,10 0,10 25,0 25,0 0,5 0,5 5,0 5,0 0,-5 0,-5 25,0 25,0 0,-10 0,-10 20,0 20,0 0,10 0,10 25,0 25,0 0,-10 0,-10 20,0 20,0 0,10 0,10 10,0 10,0 0,5 0,5 5,0 5,0 0,-5 0,-5 25,0 25,0 0,-10 0,-10 20,0 20,0 0,10 0,10 5,0 5,0 0,15 0,15 -5,0 -5,0 0,10 0,10 5,0 5,0 0,15 0,15 -20,0 -20,0 0,-5 0,-5 -5,0 -5,0 0,5 0,5 -100,0 -100,0 0,5 0,5 -5,0 -5,0 0,5 0,5 -20,0 z m 0,-10 10,0 0,-5 0,-5 5,0 5,0 0,-35 0,-35 -20,0 -20,0 0,5 0,5 -5,0 -5,0 0,20 0,20 5,0 5,0 0,5 0,5 10,0 10,0 0,5 0,5 -5,0 -5,0 0,5 0,5 10,0 z m -5,-30 -5,0 0,-20 0,-20 5,0 5,0 0,20 0,20 -5,0 z m -155,10 10,0 0,-20 0,-20 5,0 5,0 0,5 0,5 5,0 5,0 0,-5 0,-5 5,0 5,0 0,20 0,20 10,0 10,0 0,-40 0,-40 -5,0 -5,0 0,5 0,5 -5,0 -5,0 0,5 0,5 -5,0 -5,0 0,5 0,5 -5,0 -5,0 0,-5 0,-5 -5,0 -5,0 0,-5 0,-5 -5,0 -5,0 0,-5 0,-5 -5,0 -5,0 0,40 0,40 10,0 z m 100,0 20,0 0,-25 0,-25 -5,0 -5,0 0,-5 0,-5 -15,0 -15,0 0,5 0,5 -5,0 -5,0 0,20 0,20 5,0 5,0 0,5 0,5 20,0 z m -5,-10 -5,0 0,-20 0,-20 5,0 5,0 0,20 0,20 -5,0 z m 105,10 10,0 0,-30 0,-30 -10,0 -10,0 0,30 0,30 10,0 z m 45,0 15,0 0,-5 0,-5 5,0 5,0 0,-5 0,-5 -10,0 -10,0 0,5 0,5 -5,0 -5,0 0,-20 0,-20 5,0 5,0 0,5 0,5 10,0 10,0 0,-5 0,-5 -5,0 -5,0 0,-5 0,-5 -15,0 -15,0 0,5 0,5 -5,0 -5,0 0,20 0,20 5,0 5,0 0,5 0,5 15,0 z m 45,0 10,0 0,-25 0,-25 5,0 5,0 0,25 0,25 10,0 10,0 0,-25 0,-25 -5,0 -5,0 0,-5 0,-5 -10,0 -10,0 0,-10 0,-10 -10,0 -10,0 0,40 0,40 10,0 z m 75,0 15,0 0,-5 0,-5 -10,0 -10,0 0,-10 0,-10 15,0 15,0 0,-10 0,-10 -5,0 -5,0 0,-5 0,-5 -15,0 -15,0 0,5 0,5 -5,0 -5,0 0,20 0,20 5,0 5,0 0,5 0,5 15,0 z m 0,-40 -5,0 0,-5 0,-5 5,0 5,0 0,5 0,5 -5,0 z m 55,40 10,0 0,-5 0,-5 -5,0 -5,0 0,-20 0,-20 5,0 5,0 0,-5 0,-5 -5,0 -5,0 0,-10 0,-10 -10,0 -10,0 0,35 0,35 5,0 5,0 0,5 0,5 10,0 z m -220,-70 10,0 0,-5 0,-5 -10,0 -10,0 0,5 0,5 10,0 z"
       id="path4597"
       inkscape:connector-curvature="0" />
  </g>
</svg>
